<svg width="221" height="220" viewBox="0 0 221 220" fill="none" xmlns="http://www.w3.org/2000/svg">
<mask id="mask0_3_513" style="mask-type:luminance" maskUnits="userSpaceOnUse" x="0" y="0" width="221" height="220">
<path d="M110.661 219.796C171.343 219.796 220.535 170.68 220.535 110.091C220.535 49.5025 171.343 0.385742 110.661 0.385742C49.9797 0.385742 0.787598 49.5025 0.787598 110.091C0.787598 170.68 49.9797 219.796 110.661 219.796Z" fill="white"/>
</mask>
<g mask="url(#mask0_3_513)">
<path d="M242.772 -21.818H-21.4502V242H242.772V-21.818Z" fill="white"/>
<path d="M-5.36377 39.924L-4.08899 77.9067L94.8174 101.343L239.96 65.9866L161.369 -24L15.5587 -2.48322L-5.36377 39.924Z" fill="#00E100"/>
<path d="M2.73013 140.235L236.662 137.366L220.535 182.642L163.129 230.322L43.786 219.796L-3.94727 158.337L2.73013 140.235Z" fill="#00E100"/>
<path d="M-62 141.447C59.1644 129.951 166.934 102.07 239.96 65.9664C145.505 83.4021 46.0119 78.7149 -48.2 60.1074C-44.5983 89.9077 -54.837 128.698 -61.9798 141.427L-62 141.447Z" fill="#00E100"/>
<path d="M275.189 52.5715C213.271 89.2814 111.39 124.779 -13.6797 140.497C117.521 154.195 208.516 148.801 290 130.598C280.773 108.455 275.391 86.5741 275.189 52.5715Z" fill="#00E100"/>
<path d="M50.1602 112.96L47.813 145.609L77.2138 132.012L50.1602 112.96Z" fill="#00E100"/>
<path d="M171.122 90.0693L160.782 90.938L156.614 93.322L155.117 97.5648L156.574 100.616L161.025 103.889L164.283 105.646L167.662 103.505C167.662 103.505 172.255 100.454 173.146 98.575C174.036 96.696 174.441 95.403 174.441 95.403L171.142 90.0491L171.122 90.0693Z" fill="#00E100"/>
<path d="M76.5461 145.084L58.7599 120.274H51.1517V143.528H37.6553V79.5433H58.5576C72.7622 79.5433 81.6451 87.0793 81.6451 99.9085C81.6451 108.455 78.185 114.556 71.7302 117.748C71.7302 117.748 71.7707 118.031 82.0903 131.184C85.0243 134.921 89.9008 134.214 92.2885 133.588C92.5313 133.527 92.6527 133.85 92.4504 133.992L76.5461 145.063V145.084ZM51.1517 107.808H59.6502C64.7493 107.808 67.9059 105.182 67.9059 99.9287C67.9059 94.6758 64.7493 92.1099 59.6502 92.1099H51.1517V107.808Z" fill="#0B0B2B"/>
<path d="M120.698 143.548H106.817V92.3322H90.1841C90.1841 92.3322 90.1234 88.6147 90.1234 85.665C90.1234 81.8667 86.2586 80.7353 83.3448 79.9878C83.102 79.9272 83.1425 79.5433 83.4055 79.5433H137.897L136.926 92.312H120.678V143.528L120.698 143.548Z" fill="#0B0B2B"/>
<path d="M172.539 93.1403C169.888 90.433 167.683 90.2108 164.708 90.1704C159.852 90.1502 156.655 92.7968 156.675 96.8577C156.675 100.616 158.962 102.919 164.061 104.394L170.212 106.172C180.673 109.061 186.319 115.405 186.339 125.082C186.339 136.477 176.869 144.437 164.506 144.457C155.036 144.457 145.809 139.447 140.062 132.315L149.977 124.759C153.599 128.941 159.73 132.355 164.587 132.335C169.544 132.295 172.6 129.567 172.782 125.466C172.964 121.466 170.536 119.385 164.931 117.667L159.467 115.991C148.763 112.758 143.057 106.394 143.037 96.7163C143.037 85.8872 151.94 77.8058 163.777 77.7654C173.004 77.7654 180.167 81.5839 186.096 89.5036L171.952 100.009C171.77 100.151 171.527 99.9085 171.669 99.7267C172.721 98.0902 174.299 94.9788 172.539 93.1807V93.1403Z" fill="#0B0B2B"/>
</g>
</svg>
