<svg width="241" height="96" viewBox="0 0 241 96" fill="none" xmlns="http://www.w3.org/2000/svg">
<g clip-path="url(#clip0_601_756)">
<path d="M45.8431 86.3538H51.7991C54.9447 86.3538 56.1582 87.4398 56.1582 89.1167C56.1582 90.1548 55.6153 91.0492 54.3858 91.3686V91.4005C55.7431 91.688 56.0944 92.6462 56.0944 93.8121V95.8244H54.1144V93.8121C54.1144 92.7101 53.5874 92.1671 52.2142 92.1671H47.8071V95.8244H45.8271V86.3538H45.8431ZM52.0545 90.8575C53.6194 90.8575 54.3219 90.2666 54.3219 89.3882C54.3219 88.5098 53.6034 87.9189 51.6553 87.9189H47.8391V90.8575H52.0545Z" fill="white"/>
<path d="M66.9046 92.71H59.5594C59.6872 93.7961 60.3738 94.6744 62.5613 94.6744C64.4455 94.6744 65.1162 94.1155 65.2279 93.5246H66.9205C66.8407 94.7703 65.6112 95.984 62.5773 95.984C58.8249 95.984 57.7231 94.1155 57.7231 92.3427C57.7231 90.0749 59.4636 88.5896 62.4655 88.5896C65.4675 88.5896 66.9365 89.9471 66.9365 92.1511V92.726L66.9046 92.71ZM65.212 91.5602C65.212 90.6019 64.4455 89.8832 62.4975 89.8832C60.7091 89.8832 59.8468 90.4901 59.6073 91.5921H65.212V91.5442V91.5602Z" fill="white"/>
<path d="M69.076 93.0613V90.1547H67.6549V88.7173H68.8046C69.108 88.7173 69.2038 88.5576 69.2517 88.1903L69.3634 87.1042H70.9123V88.7173H74.9681V90.1547H70.9123V92.9815C70.9123 94.0036 71.4233 94.4827 73.2117 94.4827C73.8025 94.4827 74.537 94.4029 74.9042 94.323V95.7125C74.5849 95.8083 73.8025 95.9361 73.0041 95.9361C70.0341 95.9361 69.0601 94.7063 69.0601 93.0773L69.076 93.0613Z" fill="white"/>
<path d="M76.022 93.7323C76.022 92.3428 77.1557 91.7679 78.9441 91.7679H83.2234V91.6241C83.2234 90.4583 82.425 89.8833 80.477 89.8833C78.5289 89.8833 78.0179 90.3944 78.0179 91.0013C78.0179 91.0492 78.0179 91.0811 78.0179 91.177H76.2615C76.2615 91.0492 76.2615 90.9534 76.2615 90.9214C76.2615 89.532 77.5549 88.5737 80.5249 88.5737C83.4948 88.5737 85.0756 89.8194 85.0756 91.7998V95.8244H83.2394C83.2873 95.3293 83.3192 94.5947 83.3192 94.1156C82.9998 95.2495 81.9779 95.9522 79.5828 95.9522C76.996 95.9522 76.0379 94.8502 76.0379 93.7163L76.022 93.7323ZM83.2234 92.9178V92.8699H79.3752C78.2894 92.8699 77.6986 92.9817 77.6986 93.6684C77.6986 94.1475 78.0978 94.6745 79.9181 94.6745C82.1855 94.6745 83.2074 93.7482 83.2074 92.9178H83.2234Z" fill="white"/>
<path d="M86.5447 86.0183H88.4927V87.6952H86.5447V86.0183ZM86.5926 88.7174H88.4289V95.8403H86.5926V88.7174Z" fill="white"/>
<path d="M90.0576 88.7175H91.8939L91.862 90.8096H91.8939C92.4208 89.3563 93.5865 88.5737 95.8858 88.5737C98.7919 88.5737 99.8139 89.9632 99.8139 91.72V95.8404H97.9776V92.2151C97.9776 90.9534 97.3229 90.0909 95.1992 90.0909C93.4747 90.0909 91.8939 90.9055 91.8939 92.6463V95.8404H90.0576V88.7175Z" fill="white"/>
<path d="M106.552 93.0613V90.1547H105.131V88.7173H106.281C106.584 88.7173 106.68 88.5576 106.728 88.1903L106.84 87.1042H108.389V88.7173H112.444V90.1547H108.389V92.9815C108.389 94.0036 108.899 94.4827 110.688 94.4827C111.279 94.4827 112.013 94.4029 112.38 94.323V95.7125C112.061 95.8083 111.279 95.9361 110.48 95.9361C107.51 95.9361 106.536 94.7063 106.536 93.0773L106.552 93.0613Z" fill="white"/>
<path d="M113.275 92.2949C113.275 90.4263 114.664 88.5737 118.161 88.5737C121.658 88.5737 123.047 90.4104 123.047 92.2949C123.047 94.1795 121.689 95.9841 118.161 95.9841C114.632 95.9841 113.275 94.1795 113.275 92.2949ZM121.194 92.2949C121.194 91.1131 120.38 90.0271 118.161 90.0271C115.941 90.0271 115.127 91.129 115.127 92.2949C115.127 93.4608 115.925 94.5468 118.161 94.5468C120.396 94.5468 121.194 93.4767 121.194 92.2949Z" fill="white"/>
<path d="M128.875 92.6462H130.679C130.679 93.5565 131.206 94.4988 134.176 94.4988C137.146 94.4988 137.753 93.7961 137.753 92.9656C137.753 92.4865 137.466 92.1831 136.875 92.0234C136.204 91.8637 134.639 91.8157 133.538 91.7678C132.292 91.7039 130.775 91.5602 129.977 91.1929C129.274 90.8575 128.827 90.1708 128.827 89.2764C128.827 87.5835 130.504 86.1621 134.144 86.1621C138.488 86.1621 139.302 87.7272 139.302 89.4361H137.498C137.498 88.3501 136.683 87.6634 134.144 87.6634C131.829 87.6634 130.807 88.2383 130.807 89.1327C130.807 89.6118 131.063 89.8673 131.542 90.043C132.132 90.2506 133.729 90.2985 134.799 90.3624C136.14 90.4423 137.514 90.5221 138.36 90.8256C139.254 91.1769 139.765 91.9275 139.765 92.8219C139.765 94.2593 138.951 95.9841 134.208 95.9841C129.466 95.9841 128.907 93.876 128.907 92.6303L128.875 92.6462Z" fill="white"/>
<path d="M141.106 92.726V88.7014H142.942V92.3268C142.942 93.6364 143.613 94.4509 145.641 94.4509C147.477 94.4509 149.026 93.4128 149.026 91.6081V88.7014H150.862V95.8244H149.026C149.058 95.3133 149.09 94.355 149.09 93.6204H149.058C148.627 95.2175 147.35 95.9681 145.034 95.9681C142.272 95.9681 141.106 94.4349 141.106 92.726V92.726Z" fill="white"/>
<path d="M152.252 93.4608H153.992C153.992 94.0517 154.296 94.6586 156.515 94.6586C158.735 94.6586 159.198 94.2433 159.198 93.6844C159.198 93.3969 159.086 93.1733 158.623 93.0775C158.112 92.9816 157.042 92.9497 156.116 92.9178C154.647 92.8699 153.561 92.6942 153.018 92.4067C152.491 92.1192 152.252 91.5762 152.252 90.9853C152.252 89.5479 153.785 88.5737 156.515 88.5737C159.9 88.5737 160.619 89.7875 160.619 91.129H158.878C158.878 90.4263 158.511 89.8833 156.579 89.8833C154.902 89.8833 154.104 90.2187 154.104 90.8895C154.104 91.177 154.248 91.3846 154.711 91.4804C155.222 91.6082 156.132 91.6082 157.266 91.6721C158.527 91.7359 159.469 91.8158 160.092 92.0713C160.762 92.3748 161.05 92.9497 161.05 93.6205C161.05 94.7225 160.236 95.9682 156.531 95.9682C152.827 95.9682 152.268 94.5308 152.268 93.4608H152.252Z" fill="white"/>
<path d="M163.221 93.0613V90.1547H161.8V88.7173H162.95C163.253 88.7173 163.349 88.5576 163.397 88.1903L163.509 87.1042H165.058V88.7173H169.113V90.1547H165.058V92.9815C165.058 94.0036 165.569 94.4827 167.357 94.4827C167.948 94.4827 168.682 94.4029 169.05 94.323V95.7125C168.73 95.8083 167.948 95.9361 167.149 95.9361C164.179 95.9361 163.205 94.7063 163.205 93.0773L163.221 93.0613Z" fill="white"/>
<path d="M170.151 93.7323C170.151 92.3428 171.285 91.7679 173.073 91.7679H177.353V91.6241C177.353 90.4583 176.554 89.8833 174.606 89.8833C172.658 89.8833 172.147 90.3944 172.147 91.0013C172.147 91.0492 172.147 91.0811 172.147 91.177H170.391C170.391 91.0492 170.391 90.9534 170.391 90.9214C170.391 89.532 171.684 88.5737 174.654 88.5737C177.624 88.5737 179.205 89.8194 179.205 91.7998V95.8244H177.369C177.417 95.3293 177.449 94.5947 177.449 94.1156C177.129 95.2495 176.107 95.9522 173.712 95.9522C171.125 95.9522 170.167 94.8502 170.167 93.7163L170.151 93.7323ZM177.353 92.9178V92.8699H173.505C172.419 92.8699 171.828 92.9817 171.828 93.6684C171.828 94.1475 172.227 94.6745 174.047 94.6745C176.315 94.6745 177.337 93.7482 177.337 92.9178H177.353Z" fill="white"/>
<path d="M180.69 86.0183H182.638V87.6952H180.69V86.0183ZM180.738 88.7174H182.574V95.8403H180.738V88.7174Z" fill="white"/>
<path d="M184.203 88.7175H186.039L186.007 90.8096H186.039C186.566 89.3563 187.732 88.5737 190.031 88.5737C192.937 88.5737 193.959 89.9632 193.959 91.72V95.8404H192.123V92.2151C192.123 90.9534 191.468 90.0909 189.345 90.0909C187.62 90.0909 186.039 90.9055 186.039 92.6463V95.8404H184.203V88.7175Z" fill="white"/>
<path d="M230.845 0.000101579C212.993 10.6047 190.255 21.0655 163.557 30.4243L168.762 26.3198C168.299 25.7928 167.804 25.3137 167.309 24.8346C181.648 19.676 194.869 14.1182 206.733 8.24099C142.048 20.2031 73.9303 16.9929 9.43689 4.23234C11.9119 24.6589 4.88611 51.2661 0 60.0021C23.712 57.7502 46.6575 54.5721 68.5173 50.6113L68.15 54.9713C56.781 56.9836 45.0927 58.7883 33.069 60.2896C122.903 69.6804 185.193 65.9751 240.984 53.502C234.661 38.3139 230.988 23.3174 230.845 -0.0158691V0.000101579ZM95.1194 49.6371L92.5167 45.868C100.181 44.223 107.686 42.4662 115.015 40.6136L114.983 44.9577C108.516 46.5867 101.89 48.1518 95.1194 49.6371V49.6371ZM124.771 38.0903C130.105 36.6529 135.358 35.1836 140.484 33.6504C140.771 35.0718 141.266 36.3335 142 37.4674C136.412 39.1603 130.679 40.8053 124.803 42.4024L124.771 38.1062V38.0903Z" fill="white"/>
<path d="M93.8101 62.4137L83.1916 45.8521L78.1777 45.4848L77.1239 60.7528L67.7509 60.082L71.152 19.0532L84.948 20.0434C94.3211 20.7142 99.8299 25.9047 99.2551 34.0338C98.8718 39.4478 96.301 43.153 91.894 44.8619C91.894 44.8619 91.894 45.0376 98.1214 53.8694C99.8778 56.3768 103.135 56.1692 104.732 55.8817C104.892 55.8498 104.971 56.0734 104.828 56.1532L93.8261 62.3978L93.8101 62.4137ZM78.7526 37.5952L84.3572 37.9945C87.7264 38.2341 89.914 36.7168 90.1535 33.3949C90.393 30.073 88.429 28.2843 85.0598 28.0447L79.4552 27.6455L78.7366 37.5952H78.7526Z" fill="#0B0B2B"/>
<path d="M124.931 61.7429H114.871L115.095 29.6897H104.333C104.333 29.6897 104.301 26.8629 104.301 24.9943C104.301 22.5827 101.746 21.864 99.814 21.4009C99.6543 21.369 99.6862 21.1294 99.8459 21.1294H135.789L135.358 29.7057H124.708L124.915 61.7589L124.931 61.7429Z" fill="#0B0B2B"/>
<path d="M159.325 28.3961C158 27.0386 156.02 26.7831 154.088 26.8948C150.91 27.1025 148.946 28.9072 149.138 31.4465C149.314 33.8102 150.894 35.1357 154.28 35.8225L158.367 36.653C165.313 37.9945 169.672 41.6997 170.12 47.7686C170.63 54.9075 164.946 61.3437 155.892 62.0145C150.719 62.3978 144.204 60.2257 137.753 53.5979L144.491 47.8804C147.046 50.3399 150.304 53.0709 154.072 53.4542C158.303 53.8854 160.635 51.905 160.97 49.0462C161.21 46.9381 159.166 44.8939 155.429 44.0634L151.789 43.2648C144.667 41.7316 140.659 37.9945 140.228 31.9416C139.749 25.154 145.21 19.6921 152.938 19.1331C158.958 18.7019 164.547 21.6245 168.762 26.3039L159.15 33.8741C159.022 33.9699 158.846 33.8421 158.926 33.6984C159.517 32.4686 160.619 29.6897 159.325 28.3801V28.3961Z" fill="#0B0B2B"/>
</g>
<defs>
<clipPath id="clip0_601_756">
<rect width="241" height="96" fill="white"/>
</clipPath>
</defs>
</svg>
