<svg width="185" height="51" viewBox="0 0 185 51" fill="none" xmlns="http://www.w3.org/2000/svg">
<path d="M177.169 0C163.465 8.13842 146.031 16.164 125.535 23.3436L129.531 20.1929C129.169 19.7901 128.798 19.4194 128.411 19.0568C139.416 15.0923 149.559 10.8297 158.655 6.3254C109.036 15.4952 56.7739 13.0376 7.28347 3.24731C9.18477 18.9198 3.79505 39.3384 0.0488281 46.0425C18.2402 44.3181 35.8434 41.8766 52.6168 38.8388L52.3429 42.1828C43.6258 43.7299 34.6591 45.1078 25.4345 46.2681C94.3569 53.4799 142.147 50.6355 184.951 41.0627C180.101 29.4111 177.273 17.9045 177.169 0.00805784V0ZM73.0236 38.0813L71.0256 35.1886C76.9148 33.9235 82.6671 32.5778 88.2905 31.1597L88.2663 34.4956C83.3036 35.7526 78.2119 36.9452 73.0236 38.0894V38.0813ZM95.7748 29.2177C99.8755 28.1138 103.896 26.9857 107.827 25.8093C108.045 26.8971 108.431 27.8721 108.987 28.7343C104.701 30.0396 100.294 31.2966 95.791 32.5134L95.7668 29.2177H95.7748Z" fill="#00E100"/>
<path d="M72.0156 47.8797L63.8706 35.1805L60.0196 34.9066L59.206 46.6227L52.0116 46.107L54.6138 14.625L65.1918 15.3824C72.3862 15.8981 76.6158 19.8787 76.1647 26.1235C75.8666 30.2733 73.8927 33.1177 70.5252 34.4312C70.5252 34.4312 70.5332 34.5682 75.3026 41.3448C76.6561 43.2626 79.1536 43.1095 80.3781 42.8838C80.499 42.8597 80.5554 43.0289 80.4507 43.0853L72.0156 47.8797ZM60.4547 28.839L64.7568 29.1452C67.3348 29.3306 69.0267 28.1702 69.212 25.6159C69.3892 23.118 67.8907 21.6998 65.3127 21.5145L61.0106 21.2083L60.4627 28.839H60.4547Z" fill="#0B0B2B"/>
<path d="M95.8949 47.364H88.1769L88.3461 22.7715H80.0964C80.0964 22.7715 80.0722 20.5959 80.0722 19.1696C80.0722 17.3244 78.1145 16.7684 76.6321 16.4058C76.5113 16.3736 76.5274 16.1963 76.6563 16.1963H104.233L103.903 22.7715H95.7338L95.8949 47.364Z" fill="#0B0B2B"/>
<path d="M122.295 21.7886C121.272 20.7491 119.765 20.5477 118.275 20.6283C115.842 20.7814 114.327 22.1673 114.472 24.1173C114.609 25.9223 115.817 26.9456 118.42 27.4774L121.562 28.114C126.887 29.1374 130.238 31.9898 130.577 36.6392C130.963 42.1105 126.605 47.058 119.66 47.5737C115.697 47.8718 110.694 46.1958 105.739 41.1194L110.903 36.7359C112.861 38.6214 115.366 40.7165 118.25 41.0066C121.505 41.3369 123.278 39.822 123.535 37.6223C123.721 36.0107 122.15 34.4314 119.29 33.8028L116.502 33.1904C111.032 32.014 107.962 29.1535 107.632 24.5041C107.262 19.2987 111.459 15.1087 117.38 14.6735C121.997 14.3432 126.283 16.5832 129.529 20.177L122.158 25.9867C122.061 26.0593 121.932 25.9545 121.981 25.8498C122.432 24.907 123.286 22.7797 122.295 21.7644V21.7886Z" fill="#0B0B2B"/>
</svg>
