<svg width="417" height="169" viewBox="0 0 417 169" fill="none" xmlns="http://www.w3.org/2000/svg">
<g clip-path="url(#clip0_601_784)" filter="url(#filter0_d_601_784)">
<path d="M81.8848 144.83H91.9783C97.3302 144.83 99.3959 146.642 99.3959 149.477C99.3959 151.196 98.457 152.729 96.3913 153.24C98.6917 153.752 99.302 155.378 99.302 157.329V160.721H95.9688V157.329C95.9688 155.471 95.0768 154.588 92.7295 154.588H85.2649V160.721H81.8848V144.83ZM92.4008 152.404C95.0768 152.404 96.2505 151.428 96.2505 149.941C96.2505 148.455 95.0299 147.479 91.7436 147.479H85.2649V152.404H92.4008Z" fill="#00E100"/>
<path d="M117.611 155.471H105.17C105.405 157.283 106.579 158.77 110.241 158.77C113.433 158.77 114.56 157.84 114.747 156.818H117.611C117.47 158.909 115.405 160.954 110.241 160.954C103.856 160.954 102.025 157.794 102.025 154.82C102.025 151.01 104.983 148.501 110.053 148.501C115.123 148.501 117.611 150.778 117.611 154.495V155.471ZM114.747 153.519C114.747 151.939 113.433 150.731 110.147 150.731C107.095 150.731 105.64 151.754 105.217 153.612H114.701V153.519H114.747Z" fill="#00E100"/>
<path d="M121.367 156.075V151.196H118.926V148.78H120.898C121.414 148.78 121.602 148.501 121.649 147.897L121.836 146.085H124.465V148.78H131.367V151.196H124.465V155.935C124.465 157.655 125.357 158.444 128.362 158.444C129.348 158.444 130.616 158.305 131.226 158.166V160.489C130.709 160.675 129.348 160.861 127.987 160.861C122.963 160.861 121.273 158.816 121.273 156.028L121.367 156.075Z" fill="#00E100"/>
<path d="M133.151 157.19C133.151 154.867 135.075 153.891 138.127 153.891H145.404V153.659C145.404 151.707 144.042 150.731 140.756 150.731C137.611 150.731 136.578 151.614 136.578 152.636C136.578 152.729 136.578 152.776 136.578 152.915H133.62C133.62 152.915 133.62 152.543 133.62 152.497C133.62 150.174 135.827 148.547 140.85 148.547C145.873 148.547 148.549 150.638 148.549 153.984V160.768H145.404C145.498 159.931 145.545 158.723 145.545 157.887C145.028 159.792 143.291 161 139.207 161C134.794 161 133.198 159.141 133.198 157.236L133.151 157.19ZM145.357 155.796V155.703H138.831C137 155.703 136.014 155.889 136.014 157.051C136.014 157.84 136.719 158.723 139.77 158.723C143.62 158.723 145.357 157.19 145.357 155.796Z" fill="#00E100"/>
<path d="M151.037 144.273H154.324V147.061H151.037V144.273ZM151.131 148.78H154.277V160.721H151.131V148.78Z" fill="#00E100"/>
<path d="M157 148.78H160.145V152.265C161.037 149.802 163.009 148.501 166.905 148.501C171.835 148.501 173.572 150.824 173.572 153.751V160.675H170.426V154.588C170.426 152.45 169.347 151.01 165.732 151.01C162.821 151.01 160.145 152.404 160.145 155.285V160.675H157V148.733V148.78Z" fill="#00E100"/>
<path d="M185.027 156.075V151.196H182.586V148.78H184.557C185.074 148.78 185.262 148.501 185.308 147.897L185.496 146.085H188.125V148.78H195.026V151.196H188.125V155.935C188.125 157.655 189.017 158.444 192.022 158.444C193.008 158.444 194.275 158.305 194.886 158.166V160.489C194.369 160.675 193.008 160.861 191.646 160.861C186.623 160.861 184.933 158.816 184.933 156.028L185.027 156.075Z" fill="#00E100"/>
<path d="M196.435 154.774C196.435 151.614 198.782 148.547 204.697 148.547C210.613 148.547 212.96 151.661 212.96 154.774C212.96 157.887 210.66 160.954 204.697 160.954C198.735 160.954 196.435 157.933 196.435 154.774ZM209.862 154.774C209.862 152.776 208.453 150.964 204.697 150.964C200.942 150.964 199.533 152.822 199.533 154.774C199.533 156.725 200.895 158.537 204.697 158.537C208.5 158.537 209.862 156.725 209.862 154.774Z" fill="#00E100"/>
<path d="M222.96 155.378H226.011C226.011 156.911 226.903 158.491 231.927 158.491C236.95 158.491 237.983 157.283 237.983 155.935C237.983 155.145 237.513 154.634 236.48 154.356C235.354 154.077 232.678 154.03 230.8 153.937C228.687 153.798 226.105 153.612 224.744 152.962C223.57 152.404 222.772 151.242 222.772 149.756C222.772 146.921 225.589 144.552 231.786 144.552C239.156 144.552 240.518 147.2 240.518 150.034H237.466C237.466 148.222 236.058 147.061 231.786 147.061C227.842 147.061 226.105 148.036 226.105 149.523C226.105 150.313 226.528 150.778 227.326 151.057C228.312 151.382 231.035 151.475 232.866 151.568C235.119 151.707 237.466 151.846 238.922 152.358C240.424 152.915 241.269 154.216 241.269 155.703C241.269 158.119 239.861 161 231.833 161C223.805 161 222.819 157.469 222.819 155.378H222.96Z" fill="#00E100"/>
<path d="M243.71 155.517V148.78H246.856V154.867C246.856 157.05 247.982 158.444 251.409 158.444C254.508 158.444 257.137 156.679 257.137 153.659V148.78H260.282V160.721H257.137C257.184 159.838 257.231 158.259 257.231 157.004H257.184C256.433 159.699 254.273 160.954 250.377 160.954C245.682 160.954 243.71 158.398 243.71 155.517Z" fill="#00E100"/>
<path d="M262.63 156.772H265.587C265.587 157.747 266.104 158.77 269.86 158.77C273.615 158.77 274.413 158.073 274.413 157.143C274.413 156.679 274.226 156.307 273.427 156.121C272.582 155.935 270.751 155.889 269.155 155.842C266.667 155.749 264.836 155.471 263.897 154.96C263.005 154.495 262.583 153.566 262.583 152.543C262.583 150.127 265.212 148.501 269.813 148.501C275.54 148.501 276.761 150.545 276.761 152.776H273.803C273.803 151.614 273.193 150.685 269.906 150.685C267.043 150.685 265.681 151.242 265.681 152.358C265.681 152.822 265.916 153.194 266.714 153.333C267.559 153.566 269.108 153.566 271.033 153.659C273.193 153.751 274.789 153.891 275.822 154.356C276.948 154.867 277.465 155.842 277.465 156.958C277.465 158.816 276.056 160.907 269.813 160.907C263.569 160.907 262.583 158.491 262.583 156.679L262.63 156.772Z" fill="#00E100"/>
<path d="M281.268 156.075V151.196H278.826V148.78H280.798C281.314 148.78 281.502 148.501 281.549 147.897L281.737 146.085H284.366V148.78H291.267V151.196H284.366V155.935C284.366 157.655 285.258 158.444 288.263 158.444C289.248 158.444 290.516 158.305 291.126 158.166V160.489C290.61 160.675 289.248 160.861 287.887 160.861C282.864 160.861 281.174 158.816 281.174 156.028L281.268 156.075Z" fill="#00E100"/>
<path d="M293.051 157.19C293.051 154.867 294.976 153.891 298.028 153.891H305.304V153.659C305.304 151.707 303.943 150.731 300.657 150.731C297.511 150.731 296.478 151.614 296.478 152.636C296.478 152.729 296.478 152.776 296.478 152.915H293.521C293.521 152.915 293.521 152.543 293.521 152.497C293.521 150.174 295.727 148.547 300.75 148.547C305.774 148.547 308.45 150.638 308.45 153.984V160.768H305.304C305.398 159.931 305.445 158.723 305.445 157.887C304.929 159.792 303.192 161 299.107 161C294.694 161 293.098 159.141 293.098 157.236L293.051 157.19ZM305.257 155.796V155.703H298.732C296.901 155.703 295.915 155.889 295.915 157.051C295.915 157.84 296.619 158.723 299.671 158.723C303.52 158.723 305.257 157.19 305.257 155.796Z" fill="#00E100"/>
<path d="M310.938 144.273H314.224V147.061H310.938V144.273ZM311.032 148.78H314.177V160.721H311.032V148.78Z" fill="#00E100"/>
<path d="M316.9 148.78H320.046V152.265C320.938 149.802 322.909 148.501 326.806 148.501C331.735 148.501 333.472 150.824 333.472 153.751V160.675H330.327V154.588C330.327 152.45 329.247 151.01 325.632 151.01C322.722 151.01 320.046 152.404 320.046 155.285V160.675H316.9V148.733V148.78Z" fill="#00E100"/>
<path d="M163.196 104.824L145.169 77.0386L136.671 76.4345L134.887 102.083L118.973 100.968L124.747 32.0608L148.173 33.7335C164.088 34.8487 173.431 43.584 172.445 57.2446C171.788 66.3517 167.422 72.5315 159.957 75.4123C159.957 75.4123 159.957 75.7376 170.52 90.5598C173.525 94.7881 179.017 94.4163 181.74 93.9517C182.022 93.9052 182.116 94.277 181.881 94.4163L163.196 104.917V104.824ZM137.61 63.1456L147.141 63.8426C152.868 64.2608 156.577 61.7052 156.999 56.1295C157.422 50.5537 154.089 47.58 148.361 47.1618L138.831 46.4648L137.61 63.1921V63.1456Z" fill="#0B0B2B"/>
<path d="M216.012 103.663H198.97L199.345 49.8567H181.083C181.083 49.8567 181.036 45.1173 181.036 41.9577C181.036 37.9153 176.717 36.7072 173.431 35.9173C173.149 35.8708 173.196 35.4526 173.478 35.4526H234.462L233.757 49.8567H215.683L216.012 103.663Z" fill="#0B0B2B"/>
<path d="M274.413 47.6729C272.16 45.3961 268.827 44.9779 265.493 45.1173C260.095 45.4426 256.761 48.5092 257.09 52.7375C257.372 56.687 260.048 58.9173 265.822 60.0789L272.77 61.4729C284.554 63.7032 291.971 69.9759 292.722 80.1052C293.568 92.0931 283.943 102.919 268.592 104.034C259.813 104.685 248.78 101.014 237.795 89.9092L249.203 80.3375C253.522 84.4729 259.062 89.0264 265.446 89.6769C272.629 90.4203 276.573 87.0749 277.136 82.289C277.559 78.7577 274.085 75.3193 267.747 73.9254L261.597 72.5779C249.485 69.9759 242.724 63.7496 241.973 53.5739C241.128 42.19 250.423 32.99 263.522 32.0607C273.756 31.3173 283.239 36.2425 290.375 44.0951L274.085 56.8264C274.085 56.8264 273.568 56.7799 273.709 56.5011C274.695 54.4567 276.573 49.7638 274.413 47.5799V47.6729Z" fill="#0B0B2B"/>
<path d="M120.287 84.9839L124.7 32.0142L148.126 33.6869C164.041 34.8021 173.384 43.5374 172.398 57.198C171.741 66.3051 167.375 72.4849 159.91 75.3657C159.91 75.3657 159.91 75.4586 160.99 77.0384C173.994 74.2505 186.764 71.3233 199.205 68.2101L199.345 49.8566H181.083C181.083 49.8566 181.036 45.1172 181.036 41.9576C181.036 37.9152 176.717 36.7071 173.431 35.9172C173.149 35.8707 173.196 35.4526 173.478 35.4526H234.462L233.757 49.8566H215.683L215.777 63.9819C224.837 61.5657 233.757 59.1031 242.443 56.501C242.255 55.5718 242.067 54.6425 242.02 53.6667C241.175 42.2829 250.47 33.0829 263.569 32.1536C272.629 31.5031 281.127 35.3132 287.981 41.7253C312.346 33.0364 334.74 23.7435 354.88 13.8465C245.072 33.9192 129.489 28.5293 20.0088 7.10913C24.1871 41.4465 12.2626 86.099 4 100.782C44.2334 97.0182 83.1992 91.6748 120.287 85.0303V84.9839Z" fill="#00E100"/>
<path d="M395.818 7.79293e-05C365.49 17.796 326.947 35.3597 281.596 51.1112L274.132 56.9657C274.132 56.9657 273.615 56.9193 273.756 56.6405C274.742 54.596 276.62 49.9031 274.46 47.7193C272.207 45.4425 268.874 45.0243 265.54 45.1637C260.141 45.489 256.808 48.5556 257.137 52.7839C257.419 56.7334 260.094 58.9637 265.869 60.1253L272.817 61.5193C284.601 63.7496 292.018 70.0223 292.769 80.1516C293.614 92.1395 283.99 102.966 268.639 104.081C259.86 104.731 248.827 101.061 237.842 89.9556L249.25 80.3839C253.569 84.5193 259.109 89.0728 265.493 89.7233C272.676 90.4667 276.62 87.1213 277.183 82.3354C277.606 78.8041 274.132 75.3657 267.794 73.9718L261.644 72.6243C253.804 70.9516 248.217 67.6991 245.025 62.8203C235.541 65.6546 225.823 68.4425 215.824 71.091L216.011 103.616H198.97L199.158 75.4122C188.172 78.1536 176.905 80.7556 165.45 83.2647C166.764 85.1698 168.454 87.493 170.52 90.3738C173.525 94.6021 179.017 94.2304 181.74 93.7657C182.022 93.7193 182.116 94.091 181.881 94.2304L163.196 104.731L145.169 76.9455L136.672 76.3415L134.888 101.99L118.973 100.875L119.677 92.2789C100.382 95.6708 80.5701 98.691 60.1483 101.2C212.584 116.998 318.308 110.772 413 89.8162C402.249 64.3072 396.005 39.1233 395.771 -0.0463867L395.818 7.79293e-05Z" fill="#00E100"/>
<path d="M148.361 47.1152L138.831 46.4182L137.61 63.1455L147.141 63.8425C152.868 64.2606 156.577 61.7051 156.999 56.1293C157.375 50.6465 154.089 47.5798 148.361 47.1616V47.1152Z" fill="#00E100"/>
</g>
<defs>
<filter id="filter0_d_601_784" x="0" y="0" width="417" height="169" filterUnits="userSpaceOnUse" color-interpolation-filters="sRGB">
<feFlood flood-opacity="0" result="BackgroundImageFix"/>
<feColorMatrix in="SourceAlpha" type="matrix" values="0 0 0 0 0 0 0 0 0 0 0 0 0 0 0 0 0 0 127 0" result="hardAlpha"/>
<feOffset dy="4"/>
<feGaussianBlur stdDeviation="2"/>
<feComposite in2="hardAlpha" operator="out"/>
<feColorMatrix type="matrix" values="0 0 0 0 0 0 0 0 0 0 0 0 0 0 0 0 0 0 0.25 0"/>
<feBlend mode="normal" in2="BackgroundImageFix" result="effect1_dropShadow_601_784"/>
<feBlend mode="normal" in="SourceGraphic" in2="effect1_dropShadow_601_784" result="shape"/>
</filter>
<clipPath id="clip0_601_784">
<rect width="409" height="161" fill="white" transform="translate(4)"/>
</clipPath>
</defs>
</svg>
